<svg xmlns="http://www.w3.org/2000/svg" viewBox="0 0 338.91 50.27"><g ><g fill="#fff"><path d="M78.71 0v17.63h-8.4V0H60.25v49.87h10.4V29.2h7.71l.07 20.67h10.33V0H78.71zM106.05 0 92.52 49.87h10.32l2.45-9.87h9.44l2.45 9.86h10.32L113.83 0ZM110 19l2.75 12.19h-5.58ZM163.69 50.27h-10.95l-7.85-20.59h-3v20.59h-10.36V.07L145.65 0h.2c10.27 0 15.43 5.23 15.43 15 0 5.51-2 9.71-6.75 12.68l9.16 22.58M145.56 8.67H145l-3 .14V21l3.51.21h.71c4.13 0 4.94-2.37 4.94-6.35s-1-6.21-5.53-6.21M201.29 50.27h-10.95l-7.85-20.59h-3v20.59h-10.36V.07L183.25 0h.2c10.26 0 15.43 5.23 15.43 15 0 5.51-2 9.71-6.75 12.68l9.16 22.58M183.15 8.67h-.59l-3 .14V21l3.51.21h.71c4.13 0 4.94-2.37 4.94-6.35s-1-6.21-5.54-6.21M236.48 50.27h-10.33L223.6 40h-9.44l-2.54 10.26h-10.33L214.92 0h7.79l13.77 50.27M218.85 19 216 31.2h5.57ZM270.43 50.27h-9.09l-11.29-25.34v25.34h-10.19V.07l9.29-.07 11.16 25.55V.07h10.19l-.07 50.2zM289.57 50.27h-12.19V.07l13-.07h.2c9.93 0 15.5 5.08 15.5 13.43V36c0 9.43-6 14.32-16.53 14.32m1.35-41.67h-.78l-2.27.14v32.5l2.34.14h.64c3.47 0 4.94-1.66 4.94-4.91V13.43c0-3-1.32-4.78-4.87-4.78M329.61 50.27h-11.02l.07-41.39h-9.23V0h29.48v8.88h-9.3v41.39zM50.27 50.27H0V0h50.27ZM10.48 39.79 6.12 41l-4.36 1.13L5 45.32l3.2 3.19 1.17-4.36 1.16-4.36M25.14 4.45a20.69 20.69 0 1 0 20.68 20.69A20.69 20.69 0 0 0 25.14 4.45m17-2.69L41 6.12l-1.16 4.36 4.36-1.17 4.36-1.17L45.32 5l-3.2-3.19m-17 39.3a15.93 15.93 0 1 1 15.94-15.97 15.93 15.93 0 0 1-15.92 15.92m-7.3-13.55h14.59v8h4.67V14.72h-4.67v8.12H17.84v-8.12h-4.67v20.83h4.67v-8"/></g></g></svg>
